<?xml version="1.0" encoding="UTF-8" standalone="no"?>
<svg
   width="24"
   height="24"
   viewBox="0 0 24 24"
   fill="currentColor"
   version="1.1"
   id="svg1882"
   sodipodi:docname="debug-alt-active.svg"
   inkscape:version="1.2.1 (9c6d41e410, 2022-07-14)"
   xmlns:inkscape="http://www.inkscape.org/namespaces/inkscape"
   xmlns:sodipodi="http://sodipodi.sourceforge.net/DTD/sodipodi-0.dtd"
   xmlns="http://www.w3.org/2000/svg"
   xmlns:svg="http://www.w3.org/2000/svg">
  <defs
     id="defs1886" />
  <sodipodi:namedview
     id="namedview1884"
     pagecolor="#ffffff"
     bordercolor="#000000"
     borderopacity="0.25"
     inkscape:showpageshadow="2"
     inkscape:pageopacity="0.0"
     inkscape:pagecheckerboard="0"
     inkscape:deskcolor="#d1d1d1"
     showgrid="true"
     inkscape:zoom="45.254834"
     inkscape:cx="6.3308154"
     inkscape:cy="20.207786"
     inkscape:window-width="1916"
     inkscape:window-height="2041"
     inkscape:window-x="-9"
     inkscape:window-y="0"
     inkscape:window-maximized="0"
     inkscape:current-layer="layer1">
    <inkscape:grid
       type="xygrid"
       id="grid11355"
       originx="0"
       originy="0" />
  </sodipodi:namedview>
  <g
     inkscape:groupmode="layer"
     id="layer2"
     inkscape:label="bug"
     transform="matrix(1.0000216,0,0,1.0000417,26.330258,29.182592)">
    <path
       d="m -15.829324,-13.121376 v 1.9395 h 0.75 c 0.414,0 0.75,0.336 0.75,0.75 0,0.414 -0.336,0.7500005 -0.75,0.7500005 h -0.75 c 0,0.576 -0.1095,1.125 -0.3075,1.632 l 1.5885,1.5884999 c 0.2925,0.2925 0.2925,0.768 0,1.0605 -0.147,0.147 -0.339,0.219 -0.531,0.219 -0.192,0 -0.384,-0.0735 -0.531,-0.219 l -1.32749,-1.3275 c -0.825,0.9465 -2.04,1.548 -3.3915,1.548 -1.3515,0 -2.5665,-0.6 -3.3915,-1.548 l -1.3275,1.3275 c -0.147,0.147 -0.339001,0.219 -0.531001,0.219 -0.192,0 -0.384,-0.0735 -0.531,-0.219 -0.2925,-0.2925 -0.2925,-0.768 0,-1.0605 l 1.588501,-1.5884999 c -0.198,-0.507 -0.3075,-1.056 -0.3075,-1.632 h -0.750001 c -0.414,0 -0.75,-0.3360005 -0.75,-0.7500005 0,-0.414 0.336,-0.75 0.75,-0.75 h 0.750001 v -1.9395 l -1.281001,-1.281 c -0.2925,-0.2925 -0.2925,-0.768 0,-1.0605 0.2925,-0.2925 0.768,-0.2925 1.060501,0 l 1.281,1.281 h 0.4395 c 0,-1.6545 1.3455,-3 3,-3 1.6545,0 3,1.3455 3,3 h 0.4395 l 1.28099,-1.281 c 0.2925,-0.2925 0.768,-0.2925 1.0605,0 0.2925,0.2925 0.2925,0.768 0,1.0605 z m -5.99999,-1.0605 h 3 c 0,-0.828 -0.672,-1.5 -1.5,-1.5 -0.828,0 -1.5,0.672 -1.5,1.5 z m 4.5,1.5 h -6 v 3.0000005 c 0,1.6545 1.3455,2.9999999 3,2.9999999 1.6545,0 3,-1.3454999 3,-2.9999999 z"
       id="path2368"
       sodipodi:nodetypes="ccsssccsssccscsscsccsssccsscccscccsscccscccsssc" />
  </g>
  <g
     inkscape:groupmode="layer"
     id="layer1"
     inkscape:label="stop">
    <path
       d="m 6,19 h 12 c 1.104,0 2,-0.84 2,-1.875 V 5.875 C 20,4.84 19.104,4 18,4 H 6 C 4.896,4 4,4.8400001 4,5.875 V 10.7 M 6,19 4,10.7 6,10.5 V 5.875 h 12 v 11.25 H 6"
       id="path1880"
       style="fill:#a1260d;fill-opacity:1;stroke-width:1.29099"
       sodipodi:nodetypes="csssssscccccccc" />
  </g>
</svg>
