<?xml version="1.0" encoding="UTF-8" standalone="no"?>
<svg
   width="400"
   height="400"
   viewBox="0 0 106 106"
   version="1.1"
   id="svg853"
   xmlns="http://www.w3.org/2000/svg"
   xmlns:svg="http://www.w3.org/2000/svg">
    <defs
     id="defs857" />
    <g
     id="layer1"
     transform="translate(13.229167)">
        <!-- Background shape -->
        <circle
       cx="40"
       cy="53"
       r="52"
       fill="#9c9c9c"
       fill-opacity="0.19"
       stroke="#9c9c9c"
       stroke-width="1.6"
       stroke-linecap="round"
       stroke-linejoin="round"
       id="circle844" />
        <!-- Body path -->
        <path
       d="M 40 66 A 40 20 0 0 0 0.15 86 A 40 20 0 0 0 0.40 88 A 53 53 0 0 0 39 106 A 40 20 0 0 0 40 106 A 40 20 0 0 0 40 106 A 53 53 0 0 0 79 88 A 40 20 0 0 0 79 86 A 40 20 0 0 0 40 66 z"
       fill="#9c9c9c"
       fill-opacity="0.50"
       id="path846" />
        <!-- Head circle -->
        <circle
       cx="40"
       cy="37"
       r="26"
       fill="#9c9c9c"
       fill-opacity="0.50"
       id="circle848" />
        <!-- Text 'A' -->
        <text
       x="40"
       text-anchor="middle"
       y="80"
       style="font-size:102px;font-family:Arial;fill:#008f00;fill-opacity:1;stroke:#424242;stroke-width:1.5;stroke-opacity:1;-inkscape-font-specification:'Arial, Bold';font-weight:bold;font-style:normal;font-stretch:normal;font-variant:normal;font-variant-ligatures:normal;font-variant-caps:normal;font-variant-numeric:normal;font-variant-east-asian:normal;text-anchor:middle"
       id="text850">Q</text>
    </g>
</svg>